<svg width="70" height="70" viewBox="0 0 70 70" fill="none" xmlns="http://www.w3.org/2000/svg">
<g id="Group 4">
<g id="Ellipse 2" filter="url(#filter0_d_1_13)">
<circle cx="33" cy="33" r="25" fill="white"/>
<circle cx="33" cy="33" r="24.875" stroke="black" stroke-width="0.25"/>
</g>
<path id="Vector" d="M34.9301 41.3436C35.2565 41.0569 35.7574 41.0391 36.1059 41.3205C36.4893 41.6299 36.543 42.1842 36.226 42.5583C35.4444 43.556 34.2352 44.1461 32.9485 44.1579L32.6931 44.1473C31.5069 44.0626 30.4089 43.4869 29.6815 42.5583L29.6042 42.4521C29.377 42.0854 29.4531 41.6018 29.8016 41.3205C30.1849 41.011 30.7527 41.0634 31.0698 41.4376C31.209 41.6193 31.3742 41.7806 31.5603 41.9165C32.0578 42.278 32.6826 42.4308 33.2959 42.3409C33.9093 42.251 34.4605 41.9258 34.8273 41.4376H34.8377L34.9301 41.3436ZM32.959 21C36.5704 21 40.6202 23.5063 41.0795 27.5307V29.6294C41.2363 30.3869 41.5965 31.0902 42.1232 31.6671C42.1544 31.7019 42.1824 31.7395 42.2067 31.7792C42.6843 32.4868 42.9583 33.3066 43 34.153L42.9687 34.367C43.0047 35.5252 42.6119 36.6573 41.8623 37.5559C40.905 38.5725 39.5964 39.2076 38.1882 39.3389C34.7196 39.7136 31.2192 39.7136 27.7506 39.3389C26.363 39.1986 25.0771 38.5638 24.1391 37.5559C23.3772 36.6702 22.9726 35.5435 23.0014 34.3874V34.2447C23.0588 33.373 23.3544 32.5322 23.8573 31.8097L23.9408 31.7079C24.4639 31.1285 24.8236 30.4263 24.9846 29.6702V27.5714L25.0423 27.4542C25.2178 27.1565 25.5596 26.9824 25.9175 27.0205C26.3202 27.0634 26.6436 27.3643 26.7068 27.7548V29.8536C26.7109 29.8908 26.7109 29.9284 26.7068 29.9657C26.4895 31.0167 25.9927 31.9935 25.2664 32.798C24.9867 33.2329 24.8284 33.7316 24.8072 34.2447V34.4689C24.784 35.1905 25.0286 35.896 25.496 36.4556C26.1441 37.1089 27.0107 37.5138 27.9385 37.5967C31.2964 37.9533 34.6841 37.9533 38.0421 37.5967C38.9952 37.5113 39.883 37.0871 40.5367 36.4046C40.9812 35.8583 41.214 35.1764 41.1943 34.4791V34.2447C41.1729 33.7299 41.0185 33.2288 40.7455 32.7878C39.9889 31.9925 39.4629 31.0149 39.2216 29.9555C39.2175 29.9182 39.2175 29.8807 39.2216 29.8434V27.7344C38.9189 24.6576 35.7771 22.7524 33.0425 22.7524C31.8798 22.7498 30.7363 23.0411 29.7233 23.598L29.5992 23.6586C29.3441 23.76 29.0523 23.7422 28.8098 23.6046C28.5268 23.4441 28.3558 23.146 28.3634 22.8266C28.3711 22.5072 28.5562 22.2172 28.8465 22.0698C30.1018 21.3776 31.5173 21.0094 32.959 21Z" fill="black"/>
</g>
<defs>
<filter id="filter0_d_1_13" x="0" y="0" width="70" height="70" filterUnits="userSpaceOnUse" color-interpolation-filters="sRGB">
<feFlood flood-opacity="0" result="BackgroundImageFix"/>
<feColorMatrix in="SourceAlpha" type="matrix" values="0 0 0 0 0 0 0 0 0 0 0 0 0 0 0 0 0 0 127 0" result="hardAlpha"/>
<feOffset dx="2" dy="2"/>
<feGaussianBlur stdDeviation="5"/>
<feComposite in2="hardAlpha" operator="out"/>
<feColorMatrix type="matrix" values="0 0 0 0 0 0 0 0 0 0 0 0 0 0 0 0 0 0 0.05 0"/>
<feBlend mode="normal" in2="BackgroundImageFix" result="effect1_dropShadow_1_13"/>
<feBlend mode="normal" in="SourceGraphic" in2="effect1_dropShadow_1_13" result="shape"/>
</filter>
</defs>
</svg>
